<svg width="1272" height="1076" viewBox="0 0 1272 1076" fill="none" xmlns="http://www.w3.org/2000/svg">
<path d="M262 234.53C90 306.539 15.6667 108.18 0 0H1270.5V1008.63C1261.33 1059.47 1202.4 1130.64 1040 1008.63C837 856.109 887.5 1005.13 758.5 946.121C629.5 887.113 1165 872.111 887.5 727.093C610 582.074 680.5 872.111 485 727.093C289.5 582.074 438 473.06 485 449.557C532 426.054 477 144.518 262 234.53Z" fill="#EAEAEA"/>
<path d="M1137.05 219.934C1183.05 281.534 1245.88 245.601 1271.55 219.934V1013.43C1226.72 982.434 1137.05 911.534 1137.05 875.934C1137.05 831.434 1038.05 798.934 942.049 894.934C846.049 990.934 747.049 952.434 606.049 894.934C465.049 837.434 692.549 821.434 695.549 690.434C698.549 559.434 545.549 696.434 302.049 718.934C58.5488 741.434 324.549 478.934 334.049 456.434C343.549 433.934 171.049 366.934 187.049 286.934C203.049 206.934 264.049 142.934 510.049 322.434C756.049 501.934 785.549 309.434 772.549 286.934C759.549 264.434 782.049 107.934 884.549 72.9343C987.049 37.9343 1079.55 142.934 1137.05 219.934Z" fill="#39C8AE"/>
</svg>
