<?xml version="1.0" encoding="UTF-8"?>
<svg version="1.1" xmlns="http://www.w3.org/2000/svg" width="96" height="96">
<path d="M0 0 C8.80288754 6.34043826 15.4186507 14.72648904 17.58203125 25.4921875 C18.92007691 37.90936834 17.85729499 48.88109459 10.39453125 59.2421875 C3.58210875 67.3274193 -4.72289951 73.55522767 -15.48876953 74.71533203 C-28.40007937 75.61089799 -39.16843729 74.04490094 -49.3515625 65.46484375 C-57.86959925 57.33325857 -62.42046403 48.68416257 -62.88867188 36.85693359 C-63.04371176 24.34263074 -60.22647828 14.71931927 -51.41796875 5.4921875 C-37.63784493 -7.66275112 -16.31305228 -10.17259803 0 0 Z " fill="#119E90" transform="translate(70.41796875,13.5078125)"/>
<path d="M0 0 C5.16027497 2.85705173 10.05403064 6.67218599 12.29296875 12.26953125 C12.48046875 15.26953125 12.48046875 15.26953125 11.29296875 18.26953125 C4.53243131 24.22797103 -3.72080217 25.66314273 -12.45703125 25.64453125 C-13.2469043 25.64291992 -14.03677734 25.64130859 -14.85058594 25.63964844 C-23.97139875 25.44939835 -31.43753089 22.77077476 -38.70703125 17.26953125 C-38.70703125 11.45657745 -35.75008676 8.35981898 -31.97265625 4.32421875 C-22.89553693 -3.90778946 -10.93191005 -4.91849053 0 0 Z " fill="#45BBC8" transform="translate(60.70703125,62.73046875)"/>
<path d="M0 0 C4.19117197 1.54664663 7.96151041 3.92302083 10 8 C9.3903524 13.75298048 4.10977524 17.44370659 0.25 21.3125 C-0.56210937 22.16134766 -1.37421875 23.01019531 -2.2109375 23.88476562 C-3.00242187 24.68205078 -3.79390625 25.47933594 -4.609375 26.30078125 C-5.6917041 27.40160034 -5.6917041 27.40160034 -6.79589844 28.5246582 C-9 30 -9 30 -11.60253906 29.91088867 C-15.2161555 28.53793522 -16.78120215 26.08166368 -19 23 C-20.35682449 18.92952653 -20.52472254 15.25608283 -20 11 C-15.59363128 2.35046141 -9.38973292 -1.12185025 0 0 Z " fill="#4EC2D3" transform="translate(52,22)"/>
<path d="M0 0 C2.488055 3.7320825 2.76131395 6.67819759 2 11 C0.00685414 15.46274092 -2.63103413 19.60411549 -7 22 C-10.58256852 23.3589053 -14.21064045 23.20669234 -18 23 C-18.99 22.34 -19.98 21.68 -21 21 C-20.56171875 20.63390625 -20.1234375 20.2678125 -19.671875 19.890625 C-15.11657261 16.00195223 -10.80312827 11.9129016 -6.5625 7.6875 C-6.03043945 7.15995117 -5.49837891 6.63240234 -4.95019531 6.08886719 C-2.12523665 3.30900568 -2.12523665 3.30900568 0 0 Z " fill="#26A9A5" transform="translate(62,31)"/>
<path d="M0 0 C1.22589844 0.01353516 1.22589844 0.01353516 2.4765625 0.02734375 C3.41628906 0.04474609 3.41628906 0.04474609 4.375 0.0625 C4.375 3.0625 4.375 3.0625 2.72265625 5.05541992 C1.59150391 6.16300659 1.59150391 6.16300659 0.4375 7.29296875 C-0.37460937 8.09541016 -1.18671875 8.89785156 -2.0234375 9.72460938 C-2.88195313 10.55798828 -3.74046875 11.39136719 -4.625 12.25 C-5.91277344 13.5174707 -5.91277344 13.5174707 -7.2265625 14.81054688 C-9.3528365 16.90138298 -11.48578464 18.98491983 -13.625 21.0625 C-14.285 20.7325 -14.945 20.4025 -15.625 20.0625 C-15.99997746 15.37528181 -16.10959497 12.01374198 -13.9375 7.75 C-9.76799134 2.9043548 -6.4457487 -0.09208212 0 0 Z " fill="#60CDE7" transform="translate(47.625,21.9375)"/>
<path d="M0 0 C1.5625 1.25 1.5625 1.25 3 3 C2.79133337 8.60469986 -3.07216613 12.62607306 -6.75 16.3125 C-7.56210937 17.16134766 -8.37421875 18.01019531 -9.2109375 18.88476562 C-10.00242187 19.68205078 -10.79390625 20.47933594 -11.609375 21.30078125 C-12.6917041 22.40160034 -12.6917041 22.40160034 -13.79589844 23.5246582 C-16 25 -16 25 -18.77441406 24.73120117 C-19.50885742 24.48990479 -20.24330078 24.2486084 -21 24 C-21 21 -21 21 -19.07226562 18.73168945 C-18.19248047 17.86761475 -17.31269531 17.00354004 -16.40625 16.11328125 C-15.94013306 15.65140915 -15.47401611 15.18953705 -14.99377441 14.71366882 C-13.5027371 13.23943048 -12.00161128 11.77595912 -10.5 10.3125 C-9.48759946 9.31514472 -8.47587189 8.31710583 -7.46484375 7.31835938 C-4.98432371 4.87092436 -2.49464911 2.43304113 0 0 Z " fill="#38B4BA" transform="translate(59,27)"/>
<path d="M0 0 C0.66 0 1.32 0 2 0 C2 3.96 2 7.92 2 12 C1.34 12 0.68 12 0 12 C-0.0928125 13.0828125 -0.0928125 13.0828125 -0.1875 14.1875 C-1.27477695 17.95115098 -2.99175613 19.53870956 -6 22 C-10.23943662 23.38028169 -10.23943662 23.38028169 -13 22 C-15.32914823 21.63858045 -17.66253478 21.30300475 -20 21 C-20 20.67 -20 20.34 -20 20 C-18.89591797 19.85304688 -18.89591797 19.85304688 -17.76953125 19.703125 C-10.05665247 18.61174787 -10.05665247 18.61174787 -4 14 C-1.05669127 9.37480057 -0.46114509 5.34928305 0 0 Z " fill="#118E82" transform="translate(64,34)"/>
<path d="M0 0 C0.33 0.99 0.66 1.98 1 3 C-5.6 9.6 -12.2 16.2 -19 23 C-19.99 22.67 -20.98 22.34 -22 22 C-14.74 14.74 -7.48 7.48 0 0 Z " fill="#40B9C4" transform="translate(59,27)"/>
<path d="M0 0 C1 3 1 3 0.14453125 4.9375 C-4.66088465 12.37814397 -4.66088465 12.37814397 -8 14 C-10.68055633 14.51648484 -13.27027645 14.77252304 -16 15 C-15.29488281 14.45859375 -14.58976562 13.9171875 -13.86328125 13.359375 C-10.77564707 10.81513074 -7.98855952 8.09967604 -5.1875 5.25 C-4.68541016 4.74339844 -4.18332031 4.23679687 -3.66601562 3.71484375 C-2.44168942 2.47885729 -1.22051378 1.2397513 0 0 Z " fill="#1DA39B" transform="translate(63,39)"/>
<path d="M0 0 C0.73120117 1.72729492 0.73120117 1.72729492 1 4 C-0.4753418 6.12231445 -0.4753418 6.12231445 -2.69921875 8.36328125 C-3.49650391 9.16701172 -4.29378906 9.97074219 -5.11523438 10.79882812 C-5.96408203 11.62833984 -6.81292969 12.45785156 -7.6875 13.3125 C-8.51701172 14.16134766 -9.34652344 15.01019531 -10.20117188 15.88476562 C-11.00490234 16.68205078 -11.80863281 17.47933594 -12.63671875 18.30078125 C-13.37623779 19.03466064 -14.11575684 19.76854004 -14.87768555 20.5246582 C-17 22 -17 22 -19.27270508 21.73120117 C-19.8427124 21.48990479 -20.41271973 21.2486084 -21 21 C-20.56171875 20.63390625 -20.1234375 20.2678125 -19.671875 19.890625 C-15.11657261 16.00195223 -10.80312827 11.9129016 -6.5625 7.6875 C-6.03043945 7.15995117 -5.49837891 6.63240234 -4.95019531 6.08886719 C-2.12523665 3.30900568 -2.12523665 3.30900568 0 0 Z " fill="#2FAEAF" transform="translate(62,31)"/>
<path d="M0 0 C-3.63 3.63 -7.26 7.26 -11 11 C-11.33 9.68 -11.66 8.36 -12 7 C-10.85546875 5.11328125 -10.85546875 5.11328125 -9.1875 3.3125 C-8.64480469 2.71050781 -8.10210937 2.10851562 -7.54296875 1.48828125 C-4.6209359 -1.33018588 -4.22004536 -1.05501134 0 0 Z " fill="#6BD3F4" transform="translate(45,24)"/>
<path d="M0 0 C0.33 0.66 0.66 1.32 1 2 C-0.74758038 5.08396538 -1.90692105 5.96241042 -5.25 7.3125 C-9.18886314 8.03462491 -12.09857972 7.79620822 -16 7 C-16 6.67 -16 6.34 -16 6 C-15.26394531 5.90203125 -14.52789062 5.8040625 -13.76953125 5.703125 C-6.13205407 4.54506458 -6.13205407 4.54506458 0 0 Z " fill="#0F8075" transform="translate(60,48)"/>
<path d="M0 0 C0.66 0 1.32 0 2 0 C2.39111271 1.91344374 2.76231167 3.83096553 3.125 5.75 C3.33382812 6.81734375 3.54265625 7.8846875 3.7578125 8.984375 C4.01099324 12.13688351 3.70415175 13.39959066 2 16 C0.24836544 12.22777911 -0.22490027 9.333361 -0.125 5.1875 C-0.10695313 4.21167969 -0.08890625 3.23585937 -0.0703125 2.23046875 C-0.04710938 1.49441406 -0.02390625 0.75835937 0 0 Z " fill="#128F83" transform="translate(30,34)"/>
<path d="M0 0 C0.47050781 0.33773437 0.94101562 0.67546875 1.42578125 1.0234375 C2.35970703 1.69246094 2.35970703 1.69246094 3.3125 2.375 C4.23482422 3.03628906 4.23482422 3.03628906 5.17578125 3.7109375 C6.7652392 4.83410907 8.38062171 5.92041447 10 7 C3.9453125 7.1953125 3.9453125 7.1953125 2 7 C0 5 0 5 -0.125 2.375 C-0.08375 1.59125 -0.0425 0.8075 0 0 Z " fill="#11867C" transform="translate(34,47)"/>
<path d="M0 0 C0.33 0.66 0.66 1.32 1 2 C-1.38957269 5.24299151 -3.2047869 7.50902342 -7 9 C-5.44499019 5.18315774 -2.96404505 2.80804268 0 0 Z " fill="#169E92" transform="translate(61,44)"/>
</svg>
